# xmcd
#
# Track frame offsets:
#	150
#	9472
#	23626
#	39376
#	67873
#	98736
#	133960
#	156868
#	174810
#	189213
#	205565
#	226504
#	252938
#
# Disc length: 3724 seconds
#
# Revision: 2
# Processed by: cddbd v1.5.2PL0 Copyright (c) Steve Scherf et al.
# Submitted via: audiograbber 1.83.01
#
DISCID=8e0e8a0d
DTITLE=Jon Lord With The Hoochie Coochie Men - Live At The Basement [CD 1)
DYEAR=2003
DGENRE=Blues
TTITLE0=Introduction
TTITLE1=Hideaway
TTITLE2=Lonesome Traveller Blues
TTITLE3=Blues With A Feeling
TTITLE4=You Got Good Business
TTITLE5=Green Onions
TTITLE6=24/7 Blues
TTITLE7=Baby Please Don't Go
TTITLE8=The Money Doesn't Matter
TTITLE9=Strange Brew
TTITLE10=Dallas
TTITLE11=I Just Wanna Make Love To You
TTITLE12=You Need Love
EXTD=
EXTT0=
EXTT1=
EXTT2=
EXTT3=
EXTT4=
EXTT5=
EXTT6=
EXTT7=
EXTT8=
EXTT9=
EXTT10=
EXTT11=
EXTT12=
PLAYORDER=
